<svg width="18" height="18" viewBox="0 0 18 18" fill="none" xmlns="http://www.w3.org/2000/svg">
<path d="M15.6726 2.32731C15.335 1.98986 14.8773 1.80029 14.4 1.80029C13.9227 1.80029 13.4649 1.98986 13.1274 2.32731L6.29999 9.15471V11.6999H8.84519L15.6726 4.87251C16.01 4.53496 16.1996 4.0772 16.1996 3.59991C16.1996 3.12261 16.01 2.66486 15.6726 2.32731Z" fill="white"/>
<path fill-rule="evenodd" clip-rule="evenodd" d="M1.79999 5.4001C1.79999 4.92271 1.98963 4.46487 2.3272 4.12731C2.66476 3.78974 3.1226 3.6001 3.59999 3.6001H7.19999C7.43868 3.6001 7.6676 3.69492 7.83638 3.8637C8.00517 4.03248 8.09999 4.2614 8.09999 4.5001C8.09999 4.73879 8.00517 4.96771 7.83638 5.13649C7.6676 5.30528 7.43868 5.4001 7.19999 5.4001H3.59999V14.4001H12.6V10.8001C12.6 10.5614 12.6948 10.3325 12.8636 10.1637C13.0324 9.99492 13.2613 9.9001 13.5 9.9001C13.7387 9.9001 13.9676 9.99492 14.1364 10.1637C14.3052 10.3325 14.4 10.5614 14.4 10.8001V14.4001C14.4 14.8775 14.2103 15.3353 13.8728 15.6729C13.5352 16.0105 13.0774 16.2001 12.6 16.2001H3.59999C3.1226 16.2001 2.66476 16.0105 2.3272 15.6729C1.98963 15.3353 1.79999 14.8775 1.79999 14.4001V5.4001Z" fill="white"/>
</svg>
