<svg width="27" height="26" viewBox="0 0 27 26" fill="none" xmlns="http://www.w3.org/2000/svg">
<path d="M13.5462 6.33393C9.78694 6.33393 6.75473 9.31016 6.75473 13C6.75473 16.6898 9.78694 19.6661 13.5462 19.6661C17.3054 19.6661 20.3376 16.6898 20.3376 13C20.3376 9.31016 17.3054 6.33393 13.5462 6.33393ZM13.5462 17.3338C11.1169 17.3338 9.13085 15.3903 9.13085 13C9.13085 10.6097 11.1109 8.66618 13.5462 8.66618C15.9814 8.66618 17.9615 10.6097 17.9615 13C17.9615 15.3903 15.9755 17.3338 13.5462 17.3338V17.3338ZM22.1995 6.06125C22.1995 6.92569 21.4902 7.61609 20.6154 7.61609C19.7347 7.61609 19.0313 6.91989 19.0313 6.06125C19.0313 5.20261 19.7406 4.50641 20.6154 4.50641C21.4902 4.50641 22.1995 5.20261 22.1995 6.06125ZM26.6976 7.6393C26.5971 5.55651 26.1124 3.71159 24.5579 2.19157C23.0093 0.671538 21.1296 0.195805 19.0077 0.0913757C16.8207 -0.0304586 10.2657 -0.0304586 8.07874 0.0913757C5.9627 0.190003 4.08308 0.665737 2.52856 2.18576C0.974033 3.70579 0.495264 5.55071 0.38887 7.63349C0.264745 9.7801 0.264745 16.2141 0.38887 18.3607C0.489353 20.4435 0.974033 22.2884 2.52856 23.8084C4.08308 25.3285 5.95678 25.8042 8.07874 25.9086C10.2657 26.0305 16.8207 26.0305 19.0077 25.9086C21.1296 25.81 23.0093 25.3343 24.5579 23.8084C26.1065 22.2884 26.5912 20.4435 26.6976 18.3607C26.8217 16.2141 26.8217 9.7859 26.6976 7.6393V7.6393ZM23.8722 20.664C23.4112 21.8011 22.5187 22.6771 21.3543 23.1354C19.6106 23.8142 15.4731 23.6576 13.5462 23.6576C11.6193 23.6576 7.47584 23.8084 5.73809 23.1354C4.57958 22.6829 3.68706 21.8069 3.22011 20.664C2.52856 18.9525 2.68815 14.8913 2.68815 13C2.68815 11.1087 2.53447 7.04173 3.22011 5.33605C3.68115 4.19893 4.57367 3.32288 5.73809 2.86455C7.48175 2.18576 11.6193 2.34241 13.5462 2.34241C15.4731 2.34241 19.6165 2.19157 21.3543 2.86455C22.5128 3.31708 23.4053 4.19313 23.8722 5.33605C24.5638 7.04753 24.4042 11.1087 24.4042 13C24.4042 14.8913 24.5638 18.9583 23.8722 20.664Z" fill="white"/>
</svg>
