<svg width="26" height="25" viewBox="0 0 26 25" fill="none" xmlns="http://www.w3.org/2000/svg">
<path d="M5.75962 25H0.477935V8.30878H5.75962V25ZM3.11594 6.03194C1.42702 6.03194 0.0571289 4.65914 0.0571289 3.00174C0.0571289 2.20563 0.379395 1.44213 0.953033 0.87919C1.52667 0.316254 2.30469 0 3.11594 0C3.92718 0 4.7052 0.316254 5.27884 0.87919C5.85248 1.44213 6.17474 2.20563 6.17474 3.00174C6.17474 4.65914 4.80428 6.03194 3.11594 6.03194ZM25.5273 25H20.257V16.8748C20.257 14.9384 20.2172 12.4551 17.5109 12.4551C14.7649 12.4551 14.3441 14.5589 14.3441 16.7353V25H9.06807V8.30878H14.1337V10.5856H14.2076C14.9127 9.2742 16.6352 7.89024 19.205 7.89024C24.5503 7.89024 25.533 11.3446 25.533 15.8313V25H25.5273Z" fill="white"/>
</svg>
