<svg width="37" height="30" viewBox="0 0 37 30" fill="none" xmlns="http://www.w3.org/2000/svg">
<path d="M28.6582 18.1145C28.1919 18.4992 27.9777 19.0555 28.0839 19.601L29.6843 27.1411C29.8194 27.7802 29.5025 28.4269 28.8742 28.7962C28.2585 29.1794 27.4394 29.2253 26.7679 28.9188L18.7945 25.3787C18.5173 25.253 18.2095 25.1856 17.8944 25.1779H17.4065C17.2373 25.1994 17.0717 25.2453 16.9205 25.3158L8.94529 28.8728C8.55103 29.0414 8.10457 29.1012 7.6671 29.0414C6.60135 28.8698 5.89024 28.0054 6.06487 27.0936L7.6671 19.5535C7.77332 19.0034 7.55909 18.444 7.09282 18.0532L0.592064 12.6893C0.0483836 12.2403 -0.140644 11.566 0.107792 10.9576C0.349028 10.3507 0.964718 9.9078 1.70823 9.80819L10.6555 8.70323C11.336 8.64346 11.9337 8.29098 12.2398 7.76992L16.1824 0.888867C16.276 0.735614 16.3966 0.594621 16.5424 0.475084L16.7044 0.367807C16.789 0.288115 16.8863 0.222217 16.9943 0.168578L17.1905 0.107277L17.4965 0H18.2545C18.9314 0.0597686 19.5272 0.404588 19.8387 0.919518L23.8335 7.76992C24.1215 8.27106 24.6814 8.61894 25.3277 8.70323L34.275 9.80819C35.0311 9.90014 35.663 10.3446 35.9133 10.9576C36.1491 11.5721 35.9457 12.2464 35.3912 12.6893L28.6582 18.1145Z" fill="#070566"/>
</svg>
